# xmcd
#
# Track frame offsets: 
#        150
#        16475
#        39371
#        62657
#        81415
#        101779
#        124269
#        152585
#        174157
#        200924
#        229457
#
# Disc length: 3719 seconds
#
# Revision: 2
# Processed by: cddbd v1.5.2PL0 Copyright (c) Steve Scherf et al.
# Submitted via: ExactAudioCopy v0.99pb4
#
DISCID=930e850b
DTITLE=Brett Dennen - So Much More
DYEAR=2006
DGENRE=Roots
TTITLE0=Ain't No Reason
TTITLE1=There Is So Much More
TTITLE2=Darlin' Do Not Fear
TTITLE3=Because You Are A Woman
TTITLE4=She's Mine
TTITLE5=The One Who Loves You The Most
TTITLE6=I Asked When
TTITLE7=When You Feel It
TTITLE8=So Long Sweet Misery
TTITLE9=Someday
TTITLE10=DATA
EXTD=
EXTT0=
EXTT1=
EXTT2=
EXTT3=
EXTT4=
EXTT5=
EXTT6=
EXTT7=
EXTT8=
EXTT9=
EXTT10=
PLAYORDER=
